# xmcd
#
# Track frame offsets: 
#        150
#        18794
#        59292
#        94291
#        105860
#        129166
#        150792
#        183109
#        202730
#        245152
#        249616
#
# Disc length: 3761 seconds
#
# Revision: 0
# Processed by: cddbd v1.5.1PL2 Copyright (c) Steve Scherf et al.
# Submitted via: ExactAudioCopy v0.95b4
#
DISCID=780eaf0b
DTITLE=Stevie Ray Vaughan and Double Trouble - Live From Austin, Texas
DYEAR=1989
DGENRE=Blues
TTITLE0=Pride And Joy
TTITLE1=Texas Flood
TTITLE2=Voodoo Chile
TTITLE3=The House Is Rockin`
TTITLE4=Tightrope
TTITLE5=Leave My Girl Alone
TTITLE6=Cold Shot
TTITLE7=Crossfire
TTITLE8=Riviera Paradise
TTITLE9=Tick Tock
TTITLE10=Little Wing
EXTD=
EXTT0=
EXTT1=
EXTT2=
EXTT3=
EXTT4=
EXTT5=
EXTT6=
EXTT7=
EXTT8=
EXTT9=
EXTT10=
PLAYORDER=
